<?xml version="1.0" standalone="no"?>
<!DOCTYPE svg PUBLIC "-//W3C//DTD SVG 20010904//EN"
 "http://www.w3.org/TR/2001/REC-SVG-20010904/DTD/svg10.dtd">
<svg version="1.0" xmlns="http://www.w3.org/2000/svg"
 width="297.000000pt" height="297.000000pt" viewBox="0 0 297.000000 297.000000"
 preserveAspectRatio="xMidYMid meet">
<metadata>
Created by potrace 1.11, written by Peter Selinger 2001-2013
</metadata>
<g transform="translate(0.000000,297.000000) scale(0.100000,-0.100000)"
fill="#000000" stroke="none">
<path d="M1459 2957 c-51 -23 -87 -65 -120 -138 l-34 -74 1 -175 c0 -167 3
-186 39 -340 2 -8 13 -46 25 -85 12 -38 23 -78 25 -87 6 -29 76 -199 100 -244
19 -36 22 -54 19 -126 -8 -191 -10 -181 68 -306 70 -111 83 -228 38 -357 -32
-94 -32 -117 5 -223 45 -128 48 -148 29 -207 -22 -70 -68 -135 -121 -170 -50
-34 -82 -73 -89 -109 -23 -127 -25 -256 -4 -281 25 -31 72 -34 393 -31 177 2
338 6 357 10 154 29 206 55 296 148 83 86 117 133 142 198 36 93 41 149 46
545 4 343 -2 417 -46 540 -59 163 -133 242 -328 351 -182 102 -306 245 -361
416 -31 98 -71 261 -84 343 -2 11 -6 34 -9 50 -3 17 -9 66 -12 110 -5 62 -12
89 -31 119 -32 49 -100 113 -134 125 -37 13 -179 11 -210 -2z"/>
<path d="M676 1845 c-26 -7 -48 -12 -50 -11 -1 1 -19 -12 -40 -29 -72 -57 -86
-130 -41 -213 36 -67 72 -92 155 -108 87 -17 325 -23 425 -11 146 18 228 89
219 193 -11 140 -119 181 -490 188 -77 2 -151 -2 -178 -9z"/>
<path d="M369 1321 c-90 -58 -111 -152 -52 -229 50 -66 55 -67 483 -68 335 -1
428 2 550 19 170 25 215 136 85 213 -39 22 -142 50 -220 60 -67 8 -315 16
-561 18 -219 1 -266 -1 -285 -13z"/>
<path d="M657 884 c-1 -1 -34 -4 -73 -7 -155 -11 -235 -53 -275 -142 -39 -88
20 -204 122 -241 71 -26 689 -24 839 2 48 9 51 9 83 22 16 7 30 12 33 12 2 0
22 12 43 26 85 56 84 163 -2 228 -29 22 -167 81 -167 71 0 -2 -14 0 -31 5 -57
17 -162 23 -367 24 -112 1 -204 0 -205 0z"/>
<path d="M735 298 c-37 -13 -91 -53 -104 -77 -16 -29 -19 -74 -6 -104 18 -44
69 -92 111 -105 54 -16 387 -14 428 3 39 17 90 71 103 110 18 53 -20 133 -77
166 -30 17 -407 23 -455 7z"/>
</g>
</svg>
